# xmcd
#
# Track frame offsets:
#  150
#  7990
#  23922
#  32398
#  45322
#  53476
#  64781
#  78756
#  89467
#  99847
#  111776
#  124130
#  134544
#  144392
#  157643
#  170339
#  178656
#  188835
#
# Disc length: 2673 seconds
#
# Revision: 0
# Processed by: cddbd v1.5.2PL0 Copyright (c) Steve Scherf et al.
# Submitted via: AltoMP3_Maker 3.0
#
DISCID=d00a6f12
DTITLE=Ralph Stanley w  Ricky Skaggs and Keith Whitley - The Complete Jessup Recordings Plus! disc 2
DYEAR=1900
DGENRE=
TTITLE0=Let's Keep Old Glory Waving
TTITLE1=River Underground
TTITLE2=Ain't It Hard
TTITLE3=Daughter of Geronimo
TTITLE4=Buckwheat
TTITLE5=Keep My Love with You
TTITLE6=Let Me Walk Lord by Your Side
TTITLE7=In Heaven We'll Never Grow Old
TTITLE8=Wings of Angels
TTITLE9=The Darkest Hour Is Just before Dawn
TTITLE10=Working on a Building
TTITLE11=Master's Bouquet
TTITLE12=Leaning on Jesus
TTITLE13=White Dove
TTITLE14=Shouting on the Hills of Glory
TTITLE15=A Few More Seasons to Come
TTITLE16=Daniel Prayed
TTITLE17=My Main Trial Is Yet to Come
EXTD=
EXTT0=
EXTT1=
EXTT2=
EXTT3=
EXTT4=
EXTT5=
EXTT6=
EXTT7=
EXTT8=
EXTT9=
EXTT10=
EXTT11=
EXTT12=
EXTT13=
EXTT14=
EXTT15=
EXTT16=
EXTT17=
PLAYORDER=
